<?xml version="1.0" encoding="utf-8"?>
<!-- Generator: Adobe Illustrator 17.0.1, SVG Export Plug-In . SVG Version: 6.00 Build 0)  -->
<!DOCTYPE svg PUBLIC "-//W3C//DTD SVG 1.1//EN" "http://www.w3.org/Graphics/SVG/1.1/DTD/svg11.dtd">
<svg version="1.1" id="Layer_1" xmlns="http://www.w3.org/2000/svg" xmlns:xlink="http://www.w3.org/1999/xlink" x="0px" y="0px"
	 width="815.791px" height="480.885px" viewBox="0 0 815.791 480.885" enable-background="new 0 0 815.791 480.885"
	 xml:space="preserve">
<rect x="0.5" y="0.5" fill="#50002D" stroke="#50002D" stroke-miterlimit="10" width="814.791" height="479.885"/>
<g>
	<polygon fill="#E8BB00" points="41.39,51.408 67.601,222.429 147.373,270.894 147.373,364.949 94.738,402.893 184.9,442.188 
		269.155,402.893 215.062,364.955 214.689,270.944 296.898,222.659 318.564,51.407 176.053,30.781 	"/>
</g>
<polygon fill="#CCA500" points="59.921,57.377 175.99,89.03 300.031,57.376 176.576,39.509 "/>
<polygon fill="#FFE05F" points="258.373,131.585 227.052,131.585 214.373,146.619 214.373,175.492 227.022,190.585 259.814,190.585 
	259.894,213.585 212.874,213.585 189.373,188.449 189.373,133.662 212.666,111.585 258.373,111.585 "/>
<polygon fill="#FFE05F" points="169.373,131.585 138.384,131.585 124.373,146.619 124.373,175.492 138.355,190.585 171.147,190.585 
	171.226,213.585 124.207,213.585 100.373,188.449 100.373,133.662 123.999,111.585 169.373,111.585 "/>
<polygon fill="#EFC71B" points="180.896,98.977 180.957,129.057 223.04,87.615 "/>
<polygon fill="#EFC71B" points="218.617,104.585 235.276,85.628 252.609,104.585 "/>
<polygon fill="#EFC71B" points="245.515,81.616 296.314,140.564 303.498,65.327 "/>
<polygon fill="#EFC71B" points="294.679,150.524 239.379,164.943 288.584,201.81 "/>
<polygon fill="#EFC71B" points="266.583,120.644 266.137,149.186 288.436,143.834 "/>
<polygon fill="#EFC71B" points="258.779,151.416 230.683,141.382 219.087,161.896 "/>
<polygon fill="#EFC71B" points="219.886,170.035 232.373,182.857 232.373,166.579 "/>
<polygon fill="#EFC71B" points="268.373,197.797 268.373,213.585 287.098,213.585 "/>
<polygon fill="#EFC71B" points="183.373,196.459 183.373,278.241 233.098,247.522 "/>
<polygon fill="#EFC71B" points="218.195,220.585 239.156,241.1 275.725,220.585 "/>
<polygon fill="#EFC71B" points="140.82,180.585 179.373,140.564 179.373,180.585 "/>
<polygon fill="#EFC71B" points="132.792,174.829 137.486,145.692 165.571,141.605 "/>
<polygon fill="#EFC71B" points="53.357,65.586 66.343,151.639 132.734,87.566 "/>
<polygon fill="#EFC71B" points="131.009,103.251 143.273,90.541 171.226,98.224 "/>
<polygon fill="#EFC71B" points="92.373,138.483 92.373,183.749 67.622,161.896 "/>
<polygon fill="#EFC71B" points="70.134,176.793 75.039,213.585 111.832,213.585 "/>
<polygon fill="#EFC71B" points="83.736,219.585 170.7,219.585 170.923,273.993 "/>
<polygon fill="#EFC71B" points="154.373,281.639 154.373,360.575 207.889,322.891 "/>
<polygon fill="#EFC71B" points="180.399,289.834 205.373,274.949 205.373,308.62 "/>
<polygon fill="#EFC71B" points="111.821,400.935 208.373,333.594 208.373,400.712 "/>
<polygon fill="#EFC71B" points="125.657,407.585 234.473,407.585 184.748,431.89 "/>
<polygon fill="#EFC71B" points="215.373,377.522 215.373,399.585 249.19,399.585 "/>
<polyline fill="none" stroke="#F2C300" stroke-width="5" stroke-miterlimit="10" points="407.021,42.602 392.61,42.602 
	363.789,71.424 363.789,100.245 407.021,100.245 "/>
<polyline fill="none" stroke="#F2C300" stroke-width="5" stroke-miterlimit="10" points="469.754,128.268 434.432,128.268 
	363.789,198.912 363.789,269.555 469.754,269.555 "/>
<polyline fill="none" stroke="#F2C300" stroke-width="5" stroke-miterlimit="10" points="421.432,42.602 421.432,100.245 
	464.664,100.245 "/>
<polygon fill="none" stroke="#F2C300" stroke-width="5" stroke-miterlimit="10" points="479.075,57.013 493.486,42.602 
	522.308,42.602 522.308,100.245 479.075,100.245 "/>
<polyline fill="none" stroke="#F2C300" stroke-width="5" stroke-miterlimit="10" points="579.951,42.602 579.951,100.245 
	551.129,100.245 536.718,85.834 "/>
<polyline fill="none" stroke="#F2C300" stroke-width="5" stroke-miterlimit="10" points="594.362,42.602 594.362,85.834 
	608.773,100.245 637.594,100.245 637.594,42.602 "/>
<polyline fill="none" stroke="#F2C300" stroke-width="5" stroke-miterlimit="10" points="505.075,128.268 505.075,234.233 
	540.397,269.555 611.04,269.555 611.04,128.268 "/>
<polyline fill="none" stroke="#F2C300" stroke-width="5" stroke-miterlimit="10" points="652.005,100.245 652.005,42.602 
	695.237,42.602 666.416,71.424 695.237,100.245 "/>
<line fill="none" stroke="#F2C300" stroke-width="5" stroke-miterlimit="10" x1="709.648" y1="71.424" x2="736.702" y2="71.424"/>
<polyline fill="none" stroke="#F2C300" stroke-width="5" stroke-miterlimit="10" points="752.881,42.602 709.648,42.602 
	709.648,100.245 752.881,100.245 "/>
<polyline fill="none" stroke="#F2C300" stroke-width="5" stroke-miterlimit="10" points="646.362,269.555 646.362,128.268 
	752.327,128.268 752.327,163.59 717.005,198.912 646.362,198.912 "/>
<polyline fill="none" stroke="#F2C300" stroke-width="5" stroke-miterlimit="10" points="363.789,301.196 461.062,301.196 
	461.062,333.62 363.789,430.893 461.062,430.893 "/>
<polygon fill="none" stroke="#F2C300" stroke-width="5" stroke-miterlimit="10" points="493.486,301.196 493.486,398.458 
	525.91,430.893 590.759,430.893 590.759,333.62 558.335,301.196 "/>
<line fill="none" stroke="#F2C300" stroke-width="5" stroke-miterlimit="10" x1="623.183" y1="301.196" x2="623.183" y2="430.893"/>
<polyline fill="none" stroke="#F2C300" stroke-width="5" stroke-miterlimit="10" points="655.608,301.196 655.608,333.62 
	688.032,366.044 752.881,366.044 752.881,430.893 "/>
<line fill="none" stroke="#F2C300" stroke-width="5" stroke-miterlimit="10" x1="752.881" y1="301.196" x2="752.881" y2="366.044"/>
</svg>
